<svg width="91" height="74" viewBox="0 0 91 74" fill="none" xmlns="http://www.w3.org/2000/svg">
<g id="eye:close">
<path id="eye:open" d="M45.375 24.5625C42.0929 24.5625 38.9453 25.8663 36.6246 28.1871C34.3038 30.5078 33 33.6554 33 36.9375C33 40.2196 34.3038 43.3672 36.6246 45.6879C38.9453 48.0087 42.0929 49.3125 45.375 49.3125C48.6571 49.3125 51.8047 48.0087 54.1254 45.6879C56.4462 43.3672 57.75 40.2196 57.75 36.9375C57.75 33.6554 56.4462 30.5078 54.1254 28.1871C51.8047 25.8663 48.6571 24.5625 45.375 24.5625ZM45.375 57.5625C39.9049 57.5625 34.6589 55.3895 30.7909 51.5216C26.923 47.6536 24.75 42.4076 24.75 36.9375C24.75 31.4674 26.923 26.2214 30.7909 22.3534C34.6589 18.4855 39.9049 16.3125 45.375 16.3125C50.8451 16.3125 56.0911 18.4855 59.9591 22.3534C63.827 26.2214 66 31.4674 66 36.9375C66 42.4076 63.827 47.6536 59.9591 51.5216C56.0911 55.3895 50.8451 57.5625 45.375 57.5625ZM45.375 6C24.75 6 7.13625 18.8288 0 36.9375C7.13625 55.0462 24.75 67.875 45.375 67.875C66 67.875 83.6138 55.0462 90.75 36.9375C83.6138 18.8288 66 6 45.375 6Z" fill="#999999"/>
<rect id="Rectangle 1982" width="5.74887" height="103.084" rx="2.87444" transform="matrix(0.637491 -0.770458 0.768561 0.639777 1 8.04883)" fill="#999999"/>
<path id="Rectangle 1984" d="M7.40277 5.90211C6.25394 4.94578 6.09512 3.23692 7.04802 2.08526V2.08526C8.00093 0.933598 9.70472 0.775245 10.8536 1.73157L85.9199 64.2194C87.0687 65.1758 87.2276 66.8846 86.2747 68.0363V68.0363C85.3217 69.1879 83.618 69.3463 82.4691 68.39L7.40277 5.90211Z" fill="white"/>
</g>
</svg>
