<svg width="91" height="62" viewBox="0 0 91 62" fill="none" xmlns="http://www.w3.org/2000/svg">
<path d="M45.375 18.5625C42.0929 18.5625 38.9453 19.8663 36.6246 22.1871C34.3038 24.5078 33 27.6554 33 30.9375C33 34.2196 34.3038 37.3672 36.6246 39.6879C38.9453 42.0087 42.0929 43.3125 45.375 43.3125C48.6571 43.3125 51.8047 42.0087 54.1254 39.6879C56.4462 37.3672 57.75 34.2196 57.75 30.9375C57.75 27.6554 56.4462 24.5078 54.1254 22.1871C51.8047 19.8663 48.6571 18.5625 45.375 18.5625ZM45.375 51.5625C39.9049 51.5625 34.6589 49.3895 30.7909 45.5216C26.923 41.6536 24.75 36.4076 24.75 30.9375C24.75 25.4674 26.923 20.2214 30.7909 16.3534C34.6589 12.4855 39.9049 10.3125 45.375 10.3125C50.8451 10.3125 56.0911 12.4855 59.9591 16.3534C63.827 20.2214 66 25.4674 66 30.9375C66 36.4076 63.827 41.6536 59.9591 45.5216C56.0911 49.3895 50.8451 51.5625 45.375 51.5625ZM45.375 0C24.75 0 7.13625 12.8288 0 30.9375C7.13625 49.0462 24.75 61.875 45.375 61.875C66 61.875 83.6138 49.0462 90.75 30.9375C83.6138 12.8288 66 0 45.375 0Z" fill="#999999"/>
</svg>
